<?xml version="1.0" encoding="UTF-8"?>
<!-- Generated by Pixelmator Pro 3.7.1 -->
<svg width="2000" height="1000" viewBox="0 0 2000 1000" xmlns="http://www.w3.org/2000/svg">
    <g id="Group">
        <g id="Logo">
            <path id="Logo-Shape" fill="#ffffff" fill-rule="evenodd" stroke="#ffffff" stroke-width="10" d="M 310.988281 960.308594 L 310.988281 890.697266 L 381.986328 890.697266 L 381.986328 956.039063 C 375.617279 957.68103 369.161102 959.106384 362.626953 960.308594 L 310.988281 960.308594 Z M 381.986328 890.697266 L 381.986328 821.085938 L 452.984375 821.085938 L 452.984375 890.697266 L 381.986328 890.697266 Z M 452.984375 890.697266 L 502.349609 890.697266 C 487.295868 904.470947 470.750061 916.641724 452.984375 926.939453 L 452.984375 890.697266 Z M 452.984375 821.085938 L 452.984375 754.130859 L 456.119141 756 L 460.166016 756.71875 L 461.537109 758.023438 L 464.927734 756.71875 L 465.646484 756.71875 L 467.017578 756 L 467.017578 753.261719 L 466.638672 751.474609 L 491.162109 751.474609 L 494.160156 753.261719 L 494.876953 755.349609 L 497.550781 758.740234 L 496.898438 760.111328 L 496.181641 763.503906 L 496.898438 766.898438 L 495.527344 772.3125 L 496.181641 775.705078 L 495.527344 777.728516 L 493.507813 777.074219 L 491.484375 775.705078 L 488.742188 775.705078 L 486.001953 776.423828 L 488.025391 780.46875 L 487.373047 781.839844 L 487.373047 783.208984 L 486.722656 784.580078 L 488.742188 788.623047 L 488.742188 789.341797 L 488.025391 789.994141 L 489.396484 790.646484 L 489.396484 794.039063 L 490.113281 794.416016 L 490.113281 795.408203 L 493.507813 798.150391 L 493.507813 799.519531 L 492.136719 801.542969 L 493.507813 804.283203 L 492.789063 805.654297 L 494.160156 806.306641 L 494.876953 810.351563 L 496.181641 811.722656 L 495.527344 812.439453 L 497.550781 813.810547 L 498.921875 811.722656 L 499.638672 811.068359 L 500.292969 813.810547 L 505.056641 818.507813 L 505.707031 820.59375 L 507.076172 820.59375 L 507.794922 819.876953 L 507.794922 819.224609 L 508.447266 815.832031 L 509.818359 814.462891 L 510.470703 814.462891 L 512.494141 815.832031 L 515.232422 809.699219 L 516.603516 808.328125 L 519.34375 802.914063 L 522.019531 798.802734 L 523.980469 797.527344 L 523.980469 821.085938 L 452.984375 821.085938 Z M 523.980469 821.085938 L 557.837891 821.085938 C 548.184937 838.112244 536.821167 854.040527 523.980469 868.638672 L 523.980469 821.085938 Z M 490.113281 794.416016 L 490.113281 794.039063 L 490.765625 794.757813 L 490.113281 794.416016 Z M 381.986328 821.085938 L 310.988281 821.085938 L 310.988281 804.9375 L 311.402344 804.9375 L 313.425781 805.654297 L 313.425781 806.958984 L 314.142578 807.675781 L 314.796875 806.958984 L 316.166016 808.328125 L 318.908203 808.328125 L 318.189453 809.699219 L 320.210938 811.722656 L 322.234375 811.068359 L 324.257813 812.439453 L 324.908203 811.722656 L 325.628906 812.439453 L 326.279297 812.439453 L 327.650391 810.351563 L 329.673828 803.566406 L 327.650391 800.890625 L 326.279297 800.173828 L 324.908203 798.150391 L 323.605469 796.779297 L 319.560547 795.408203 L 321.517578 791.365234 L 321.517578 789.341797 L 323.605469 787.253906 L 320.210938 784.580078 L 318.908203 780.46875 L 320.865234 775.705078 L 323.605469 771.660156 L 324.908203 776.423828 L 326.279297 777.074219 L 326.996094 781.185547 L 331.759766 783.861328 L 333.783203 783.208984 L 337.175781 779.816406 L 338.544922 779.816406 L 339.916016 779.097656 L 343.962891 778.445313 L 346.701172 776.423828 L 347.353516 775.054688 L 349.376953 773.03125 L 350.748047 773.683594 L 351.464844 776.423828 L 352.835938 777.728516 L 354.138672 777.074219 L 356.878906 775.054688 L 360.990234 771.660156 L 360.990234 770.289063 L 360.273438 768.919922 L 358.902344 767.548828 L 357.533203 764.875 L 356.228516 764.158203 L 354.138672 761.417969 L 352.117188 759.394531 L 352.117188 756.71875 L 352.835938 752.609375 L 353.787109 751.474609 L 363.615234 751.474609 L 364.384766 752.609375 L 366.40625 753.978516 L 367.775391 755.349609 L 367.775391 756.71875 L 366.40625 759.394531 L 367.775391 761.417969 L 369.798828 762.134766 L 370.451172 763.503906 L 373.193359 764.158203 L 375.212891 762.787109 L 376.583984 762.787109 L 379.324219 761.417969 L 381.986328 762.130859 L 381.986328 821.085938 Z M 310.988281 821.085938 L 310.988281 890.697266 L 239.992188 890.697266 L 239.992188 886.863281 L 242.113281 886.492188 L 245.503906 887.212891 L 247.527344 886.492188 L 248.898438 885.841797 L 248.181641 884.472656 L 249.550781 881.730469 L 248.898438 881.078125 L 250.267578 879.054688 L 252.289063 872.923828 L 252.289063 872.205078 L 252.943359 870.181641 L 253.660156 866.138672 L 252.943359 864.767578 L 252.289063 860.65625 L 252.943359 860.003906 L 252.943359 857.980469 L 251.572266 849.824219 L 252.289063 845.0625 L 250.267578 842.976563 L 250.267578 842.322266 L 251.572266 840.298828 L 251.572266 839.582031 L 250.919922 838.929688 L 250.267578 839.582031 L 250.267578 838.275391 L 249.550781 837.558594 L 250.267578 834.167969 L 249.550781 832.144531 L 250.919922 829.402344 L 251.572266 824.640625 L 252.943359 823.271484 L 251.572266 823.271484 L 251.572266 822.617188 L 252.609375 821.085938 L 273.539063 821.085938 L 274.017578 821.248047 L 274.101563 821.085938 L 281.736328 821.085938 L 282.171875 821.964844 L 283.050781 821.085938 L 310.988281 821.085938 Z M 239.992188 890.697266 L 239.992188 956.039063 C 214.799911 949.544495 190.963425 939.673584 168.994141 926.939453 L 168.994141 890.697266 L 181.294922 890.697266 L 181.5625 891.257813 L 181.5625 891.910156 L 183.650391 896.671875 L 182.933594 899.412109 L 185.673828 900.783203 L 187.044922 898.042969 L 186.326172 896.671875 L 187.044922 895.367188 L 187.044922 893.998047 L 190.4375 893.28125 L 193.175781 894.650391 L 193.830078 896.019531 L 195.853516 893.998047 L 195.853516 892.626953 L 193.830078 891.257813 L 193.962891 890.697266 L 239.992188 890.697266 Z M 168.994141 890.697266 L 119.628906 890.697266 C 112.026878 883.741699 104.804764 876.377014 97.998047 868.638672 L 97.998047 821.085938 L 168.787109 821.085938 L 168.710938 821.248047 L 168.710938 823.271484 L 166.623047 824.640625 L 167.992188 828.033203 L 164.599609 829.402344 L 165.251953 830.121094 L 163.945313 831.425781 L 165.251953 833.513672 L 166.623047 834.167969 L 166.623047 835.537109 L 167.339844 836.1875 L 167.339844 836.908203 L 165.96875 836.908203 L 165.96875 838.275391 L 163.228516 839.582031 L 164.599609 840.953125 L 163.945313 842.976563 L 161.859375 844.345703 L 161.859375 845.0625 L 157.814453 849.107422 L 156.443359 851.847656 L 157.097656 852.501953 L 157.097656 853.21875 L 157.097656 856.611328 L 155.791016 861.373047 L 156.443359 864.050781 L 153.050781 868.158203 L 153.050781 871.552734 L 156.443359 872.923828 L 157.097656 873.576172 L 157.814453 875.597656 L 159.183594 876.316406 L 159.183594 874.292969 L 162.576172 868.8125 L 164.599609 866.789063 L 163.945313 866.138672 L 166.623047 865.417969 L 168.994141 863.085938 L 168.994141 890.697266 Z M 97.998047 821.085938 L 64.140625 821.085938 C 51.896351 799.488892 42.405163 776.125793 36.142578 751.474609 L 97.998047 751.474609 L 97.998047 821.085938 Z M 97.998047 751.474609 L 97.998047 728.792969 L 98.701172 728.792969 L 100.003906 729.509766 L 100.003906 726.769531 L 101.375 722.007813 L 102.746094 722.007813 L 104.115234 723.378906 L 105.486328 724.748047 L 106.138672 724.748047 L 108.162109 726.769531 L 108.162109 729.509766 L 109.533203 731.533203 L 109.533203 732.904297 L 110.900391 734.275391 L 110.25 735.644531 L 110.25 736.949219 L 115.011719 739.037109 L 115.011719 740.40625 L 117.035156 740.40625 L 117.035156 739.037109 L 118.404297 739.689453 L 120.427734 738.318359 L 122.449219 735.644531 L 122.449219 734.927734 L 123.166016 736.294922 L 121.080078 739.037109 L 121.080078 743.083984 L 119.058594 743.800781 L 117.6875 743.800781 L 117.035156 744.453125 L 119.775391 746.474609 L 121.080078 749.214844 L 119.058594 750.585938 L 119.775391 751.238281 L 119.058594 751.238281 L 119.058594 751.474609 L 97.998047 751.474609 Z M 168.994141 820.652344 L 168.994141 817.736328 L 170.013672 818.507813 L 168.994141 820.652344 Z M 198.59375 756 L 201.333984 754.632813 L 199.962891 755.349609 L 198.59375 756 Z M 383.677734 751.474609 L 382.71875 749.214844 L 382.71875 745.103516 L 384.087891 743.083984 L 386.763672 741.712891 L 387.480469 740.40625 L 388.132813 737.666016 L 393.615234 742.429688 L 397.658203 743.800781 L 398.3125 745.103516 L 400.400391 746.474609 L 403.792969 746.474609 L 409.925781 743.083984 L 414.623047 743.083984 L 415.341797 742.429688 L 416.710938 735.644531 L 418.080078 733.556641 L 424.148438 734.275391 L 426.888672 735.644531 L 429.628906 736.294922 L 429.628906 735.644531 L 431.652344 736.294922 L 435.046875 737.666016 L 434.394531 738.318359 L 436.414063 741.060547 L 439.808594 743.083984 L 440.460938 743.083984 L 441.832031 743.800781 L 443.201172 745.103516 L 443.201172 747.193359 L 445.943359 749.867188 L 447.931641 751.474609 L 383.677734 751.474609 Z M 571.8125 751.474609 L 571.671875 751.238281 L 570.955078 750.585938 L 568.931641 747.845703 L 571.671875 743.083984 L 572.324219 738.318359 L 575.716797 733.556641 L 575.064453 725.400391 L 576.435547 723.378906 L 575.716797 722.724609 L 574.345703 719.984375 L 571.671875 717.244141 L 571.671875 716.59375 L 571.671875 713.853516 L 570.300781 713.199219 L 569.583984 705.695313 L 570.955078 702.304688 L 575.064453 698.910156 L 575.064453 697.539063 L 574.345703 696.169922 L 574.345703 693.496094 L 575.064453 692.125 L 575.064453 688.013672 L 574.345703 681.947266 L 574.306641 681.863281 L 594.548828 681.863281 C 594.513489 705.884277 591.493408 729.205444 585.835938 751.474609 L 571.8125 751.474609 Z M 108.878906 744.453125 L 109.533203 743.083984 L 108.878906 743.083984 L 109.533203 741.712891 L 109.533203 742.429688 L 110.25 741.060547 L 110.25 739.689453 L 108.162109 739.037109 L 107.509766 739.689453 L 108.162109 741.060547 L 106.138672 743.083984 L 108.878906 744.453125 Z M 124.472656 715.941406 L 121.796875 714.570313 L 123.166016 715.222656 L 124.472656 715.941406 Z M 259.728516 684.623047 L 261.097656 683.316406 L 260.447266 683.96875 L 259.728516 684.623047 Z M 168.710938 683.96875 L 168.994141 683.091797 L 168.994141 683.119141 L 168.710938 683.96875 Z M 27.427734 681.863281 C 27.427526 681.721313 27.425781 681.579529 27.425781 681.4375 C 27.425781 657.572327 30.375664 634.39563 35.927734 612.251953 L 97.998047 612.251953 L 97.998047 622.054688 L 96.613281 622.832031 L 97.330078 626.226563 L 96.875 627.099609 L 96.613281 626.943359 L 96.613281 627.597656 L 95.960938 629.683594 L 93.9375 631.707031 L 93.21875 635.751953 L 92.566406 636.46875 L 92.566406 639.863281 L 91.849609 640.513672 L 89.175781 644.625 L 89.175781 645.996094 L 88.457031 648.019531 L 89.828125 649.388672 L 87.804688 650.042969 L 86.433594 649.388672 L 85.78125 649.388672 L 85.78125 650.693359 L 86.433594 651.412109 L 85.78125 652.0625 L 85.78125 652.78125 L 87.152344 652.78125 L 88.457031 653.433594 L 89.175781 653.433594 L 91.195313 654.804688 L 89.828125 656.173828 L 90.544922 657.544922 L 91.195313 660.21875 L 89.175781 659.568359 L 88.457031 659.568359 L 82.390625 664.330078 L 82.390625 664.982422 L 83.693359 667.005859 L 83.041016 668.310547 L 81.669922 668.310547 L 83.041016 671.050781 L 83.041016 671.703125 L 81.019531 673.074219 L 81.669922 677.185547 L 80.300781 679.205078 L 80.300781 680.576172 L 79.351563 681.863281 L 27.427734 681.863281 Z M 97.998047 612.251953 L 97.998047 611.990234 L 98.253906 612.251953 L 97.998047 612.251953 Z M 169.390625 681.863281 L 172.101563 673.791016 L 169.412109 681.863281 L 169.390625 681.863281 Z M 215.556641 659.568359 L 212.880859 656.826172 L 214.904297 658.849609 L 215.556641 659.568359 Z M 223.712891 625.574219 L 225.082031 621.529297 L 224.429688 623.550781 L 223.712891 625.574219 Z M 528.933594 612.251953 L 528.152344 611.283203 L 526.78125 610.632813 L 524.759766 607.892578 L 523.980469 607.640625 L 523.980469 542.640625 L 558.316406 542.640625 C 570.46875 564.249023 579.872559 587.610962 586.050781 612.251953 L 528.933594 612.251953 Z M 523.980469 542.640625 L 452.984375 542.640625 L 452.984375 473.029297 L 503.275391 473.029297 C 510.538391 479.733765 517.450684 486.812805 523.980469 494.236328 L 523.980469 542.640625 Z M 452.984375 473.029297 L 381.986328 473.029297 L 381.986328 406.835938 C 407.178925 413.330627 431.014893 423.201111 452.984375 435.935547 L 452.984375 473.029297 Z M 381.986328 473.029297 L 381.986328 542.640625 L 310.988281 542.640625 L 310.988281 473.029297 L 381.986328 473.029297 Z M 310.988281 473.029297 L 239.992188 473.029297 L 239.992188 406.835938 C 244.919342 405.565735 249.898697 404.426147 254.925781 403.417969 L 310.988281 403.417969 L 310.988281 473.029297 Z M 239.992188 473.029297 L 239.992188 527.351563 L 237.349609 526.333984 L 238.001953 523.660156 L 238.001953 521.570313 L 237.349609 520.199219 L 235.261719 518.179688 L 237.349609 513.414063 L 236.632813 512.044922 L 235.261719 510.740234 L 233.238281 510.023438 L 231.867188 509.371094 L 229.193359 509.371094 L 227.105469 508 L 225.800781 510.740234 L 222.341797 511.394531 L 220.318359 513.414063 L 218.296875 512.761719 L 218.296875 515.501953 L 217.644531 518.179688 L 216.273438 520.199219 L 212.164063 519.548828 L 211.509766 520.199219 L 208.771484 520.919922 L 201.984375 522.941406 L 200.615234 522.289063 L 198.59375 521.570313 L 193.830078 523.660156 L 189.71875 525.681641 L 187.697266 525.681641 L 187.697266 526.333984 L 184.302734 524.962891 L 182.279297 524.310547 L 180.259766 522.941406 L 179.541016 522.941406 L 178.171875 524.310547 L 177.517578 524.310547 L 175.496094 521.570313 L 171.384766 520.919922 L 170.013672 521.570313 L 168.994141 521.046875 L 168.994141 473.029297 L 239.992188 473.029297 Z M 168.994141 473.029297 L 118.703125 473.029297 C 134.003784 458.905212 150.863037 446.445007 168.994141 435.935547 L 168.994141 473.029297 Z M 310.988281 542.640625 L 310.988281 571.677734 L 310.033203 571.224609 L 305.988281 567.830078 L 306.640625 565.742188 L 308.662109 564.4375 L 309.380859 563.066406 L 310.751953 558.957031 L 310.751953 558.304688 L 304.617188 554.912109 L 300.507813 556.935547 L 299.855469 555.564453 L 299.855469 552.824219 L 303.900391 553.541016 L 306.640625 550.800781 L 308.662109 546.755859 L 308.011719 543.361328 L 308.011719 542.644531 L 300.507813 544.667969 L 299.203125 543.361328 L 298.486328 544.015625 L 297.832031 546.039063 L 295.746094 543.361328 L 295.935547 542.640625 L 310.988281 542.640625 Z M 381.986328 542.640625 L 452.984375 542.640625 L 452.984375 566.017578 L 447.962891 566.460938 L 445.943359 567.113281 L 444.572266 569.136719 L 445.222656 575.269531 L 445.222656 575.986328 L 443.201172 578.009766 L 441.832031 580.75 L 442.548828 583.423828 L 441.832031 583.423828 L 441.177734 586.164063 L 443.201172 590.208984 L 445.943359 592.298828 L 443.853516 594.972656 L 441.832031 594.972656 L 439.808594 594.320313 L 437.785156 592.298828 L 438.4375 590.927734 L 435.697266 588.1875 L 433.023438 587.535156 L 430.283203 585.447266 L 428.259766 584.140625 L 424.148438 578.662109 L 423.498047 579.378906 L 421.474609 584.140625 L 415.341797 586.164063 L 413.318359 589.558594 L 413.318359 590.208984 L 401.052734 586.818359 L 399.029297 586.164063 L 390.873047 595.691406 L 385.458984 596.34375 L 383.371094 594.320313 L 381.986328 595.367188 L 381.986328 542.640625 Z M 98.701172 547.408203 L 97.998047 547.056641 L 97.998047 542.640625 L 100.587891 542.640625 L 100.003906 545.384766 L 100.724609 546.755859 L 98.701172 547.408203 Z M 97.998047 542.640625 L 63.660156 542.640625 C 73.415863 525.293701 84.943489 509.077637 97.998047 494.236328 L 97.998047 528.654297 L 97.330078 526.333984 L 97.984375 529.074219 L 97.998047 529.113281 L 97.998047 542.640625 Z"/>
            <path id="Shape" fill="none" stroke="#ffffff" stroke-width="10" d="M 185.67392 900.782837 L 182.933319 899.412537 L 183.650543 896.671875 L 181.563019 891.910156 L 181.563019 891.257141 L 180.909943 889.886841 L 181.563019 887.863464 L 180.909943 887.212646 L 182.280243 886.493164 L 182.933319 884.472046 L 182.280243 882.448669 L 182.933319 879.708069 L 182.933319 877.684692 L 180.909943 876.31665 L 180.259125 874.293274 L 180.909943 872.922974 L 180.909943 871.552673 L 178.17157 867.441772 L 178.888824 864.050293 L 178.17157 862.026978 L 175.495148 860.656677 L 175.495148 858.633301 L 174.777924 858.633301 L 170.733429 861.373901 L 166.622528 865.418396 L 163.946106 866.137878 L 164.599152 866.788696 L 162.575806 868.812073 L 159.184357 874.293274 L 159.184357 876.31665 L 157.814056 875.597168 L 157.096832 873.57605 L 156.443756 872.922974 L 153.05011 871.552673 L 153.05011 868.158997 L 156.443756 864.050293 L 155.79071 861.373901 L 157.096832 856.612183 L 157.096832 853.218506 L 157.096832 852.501282 L 156.443756 851.848206 L 157.814056 849.107605 L 161.858551 845.06311 L 161.858551 844.345886 L 163.946106 842.975586 L 164.599152 840.952209 L 163.228851 839.581909 L 165.969452 838.275818 L 165.969452 836.907715 L 167.339752 836.907715 L 167.339752 836.188232 L 166.622528 835.537415 L 166.622528 834.167114 L 165.252228 833.514099 L 163.946106 831.426514 L 165.252228 830.120422 L 164.599152 829.403198 L 167.992828 828.032837 L 166.622528 824.641418 L 168.710052 823.271118 L 168.710052 821.247803 L 170.013947 818.507202 L 167.339752 816.483826 L 165.252228 813.809631 L 165.252228 812.439331 L 164.599152 811.069031 L 164.599152 809.69873 L 163.228851 806.95813 L 160.554657 806.95813 L 159.184357 808.32843 L 157.814056 806.95813 L 152.399261 806.307312 L 152.399261 798.802734 L 153.703156 794.038757 L 151.67981 787.970947 L 151.67981 787.253662 L 152.399261 785.232544 L 152.399261 781.838867 L 146.265015 777.727966 L 144.228394 773.683472 L 143.524414 773.683472 L 144.241669 775.704651 L 142.871368 775.704651 L 140.783813 774.336548 L 139.479919 771.65979 L 133.998718 775.053772 L 132.628418 775.053772 L 130.605072 774.336548 L 129.234772 775.704651 L 127.213623 774.336548 L 130.605072 770.28949 L 131.324524 768.919189 L 129.954224 766.898071 L 131.324524 764.874695 L 129.954224 764.874695 L 131.324524 763.504395 L 131.324524 762.78717 L 129.954224 762.134094 L 128.583923 762.134094 L 127.930878 761.41687 L 127.213623 761.41687 L 125.843323 760.110718 L 123.819977 760.110718 L 119.058228 753.979004 L 119.775482 753.261841 L 119.058228 752.608765 L 119.058228 751.238403 L 119.775482 751.238403 L 119.058228 750.585388 L 121.079376 749.215088 L 119.775482 746.474487 L 117.034882 744.453369 L 117.687927 743.800293 L 119.058228 743.800293 L 121.079376 743.083008 L 121.079376 739.036377 L 123.166931 736.295776 L 122.449677 734.927612 L 122.449677 735.644897 L 120.428528 738.319092 L 118.405182 739.689392 L 117.034882 739.036377 L 117.034882 740.406616 L 115.011536 740.406616 L 115.011536 739.036377 L 110.249786 736.948792 L 110.249786 735.644897 L 110.900604 734.274597 L 109.532532 732.904297 L 109.532532 731.533997 L 108.162231 729.51062 L 108.162231 726.77002 L 106.138885 724.748901 L 105.485809 724.748901 L 104.115509 723.378601 L 102.745209 722.008301 L 101.374908 722.008301 L 100.004608 726.77002 L 100.004608 729.51062 L 98.700745 728.793396 L 97.330414 728.793396 L 95.960114 725.39978 L 95.307068 726.119202 L 94.589813 725.39978 L 94.589813 728.793396 L 91.849213 727.489502 L 90.545349 728.140381 L 90.545349 726.77002 L 89.175018 726.77002 L 89.175018 725.39978 L 87.151672 723.378601 L 84.411072 722.725586 L 84.411072 722.008301 L 85.781372 722.008301 L 85.064117 719.984985 L 87.151672 717.961609 L 87.151672 715.94043 L 89.175018 714.57019 L 90.545349 712.482605 L 91.849213 711.82959 L 92.566467 709.088989 L 91.849213 707.785034 L 90.545349 706.414795 L 89.175018 708.435913 L 88.457794 706.414795 L 88.457794 705.695313 L 89.175018 705.695313 L 90.545349 700.933594 L 90.545349 698.910156 L 89.175018 698.257141 L 89.175018 697.539917 L 88.457794 694.865723 L 87.151672 693.495422 L 86.434418 692.125122 L 84.411072 690.754761 L 79.649323 690.754761 L 76.255676 689.384521 L 74.885376 689.384521 L 75.538437 686.710327 L 76.255676 685.990845 L 76.908737 686.710327 L 78.279022 685.990845 L 78.279022 683.31665 L 80.300171 680.57605 L 80.300171 679.20575 L 81.670471 677.184631 L 81.019623 673.07373 L 83.040771 671.703369 L 83.040771 671.050354 L 81.670471 668.309753 L 83.040771 668.309753 L 83.693817 667.005859 L 82.389923 664.982544 L 82.389923 664.329468 L 88.457794 659.567749 L 89.175018 659.567749 L 91.196167 660.218567 L 90.545349 657.544373 L 89.828094 656.174072 L 91.196167 654.803772 L 89.175018 653.433472 L 88.457794 653.433472 L 87.151672 652.780396 L 85.781372 652.780396 L 85.781372 652.063171 L 86.434418 651.412354 L 85.781372 650.692871 L 85.781372 649.388977 L 86.434418 649.388977 L 87.804718 650.041992 L 89.828094 649.388977 L 88.457794 648.018677 L 89.175018 645.995361 L 89.175018 644.625 L 91.849213 640.514099 L 92.566467 639.863281 L 92.566467 636.469604 L 93.219513 635.75238 L 93.936768 631.707886 L 95.960114 629.68457 L 96.61319 627.596985 L 96.61319 626.94397 L 96.87439 627.098877 L 97.330414 626.226685 L 96.61319 622.833008 L 101.374908 620.158813 L 102.745209 618.071289 L 102.094391 616.047913 L 99.35379 613.373779 L 95.960114 609.913696 L 93.936768 605.216125 L 93.219513 604.498901 L 91.196167 604.498901 L 91.849213 602.475525 L 92.566467 601.758301 L 92.566467 600.454346 L 93.219513 599.084106 L 93.219513 597.713745 L 94.589813 596.343506 L 94.589813 593.602905 L 93.936768 590.928711 L 94.589813 590.209229 L 91.849213 590.209229 L 91.196167 590.928711 L 89.828094 590.209229 L 89.175018 590.928711 L 87.151672 590.209229 L 87.151672 588.905334 L 81.670471 586.164734 L 80.300171 587.535034 L 78.996277 586.817749 L 78.279022 584.794434 L 78.279022 583.424133 L 77.625977 582.053833 L 77.625977 580.032715 L 75.538437 576.639038 L 72.86203 573.245361 L 68.100281 571.224243 L 67.383041 569.136719 L 65.35968 567.830566 L 66.72998 564.43689 L 65.35968 563.06665 L 68.753342 562.349365 L 71.49173 563.719727 L 73.515076 561.698547 L 74.23233 561.698547 L 75.538437 558.304932 L 77.625977 558.957947 L 78.996277 557.587646 L 80.300171 557.587646 L 82.389923 556.93457 L 84.411072 556.93457 L 83.693817 555.564331 L 84.411072 554.911255 L 85.781372 554.19397 L 87.804718 550.800293 L 88.457794 548.779175 L 89.828094 546.038574 L 94.589813 546.755859 L 95.960114 546.038574 L 98.700745 547.408936 L 100.724091 546.755859 L 100.004608 545.385498 L 100.724091 541.994141 L 99.35379 539.970703 L 102.094391 536.512878 L 101.374908 534.489502 L 101.374908 533.119263 L 100.004608 531.095886 L 98.700745 531.095886 L 100.004608 530.445068 L 102.745209 531.815308 L 108.879486 531.095886 L 112.270905 532.466187 L 115.011536 532.466187 L 117.687927 533.119263 L 119.058228 532.466187 L 119.058228 531.815308 L 121.079376 530.445068 L 121.079376 531.095886 L 123.819977 530.445068 L 125.190277 531.095886 L 125.843323 531.815308 L 129.234772 531.815308 L 129.954224 529.074707 L 132.628418 526.334106 L 133.998718 525.681091 L 135.369019 527.051392 L 137.392365 527.704468 L 138.109619 531.815308 L 142.871368 524.310791 L 142.154114 523.659912 L 142.154114 522.940491 L 142.871368 522.289673 L 142.154114 521.57019 L 145.54776 518.178711 L 148.288361 518.178711 L 150.309509 516.155396 L 151.028961 516.808472 L 152.399261 516.155396 L 154.42041 516.808472 L 155.073456 516.155396 L 157.814056 517.525696 L 159.837433 518.178711 L 161.205505 518.895996 L 165.252228 520.19989 L 167.339752 520.19989 L 170.013947 521.57019 L 171.384247 520.919312 L 175.495148 521.57019 L 177.518524 524.310791 L 178.17157 524.310791 L 179.54187 522.940491 L 180.259125 522.940491 L 182.280243 524.310791 L 184.303619 524.963867 L 187.697266 526.334106 L 187.697266 525.681091 L 189.718414 525.681091 L 193.829315 523.659912 L 198.593262 521.57019 L 200.61441 522.289673 L 201.984711 522.940491 L 208.772003 520.919312 L 211.510406 520.19989 L 212.163452 519.549072 L 216.274353 520.19989 L 217.644653 518.178711 L 218.297699 515.502319 L 218.297699 512.761719 L 220.318848 513.414795 L 222.342194 511.393646 L 225.800049 510.740601 L 227.10614 508 L 229.193695 509.3703 L 231.867889 509.3703 L 233.23819 510.023346 L 235.261536 510.740601 L 236.631836 512.044495 L 237.349091 513.414795 L 235.261536 518.178711 L 237.349091 520.19989 L 238.002167 521.57019 L 238.002167 523.659912 L 237.349091 526.334106 L 246.157562 529.727783 L 248.898163 531.815308 L 248.180908 532.466187 L 252.942657 532.466187 L 255.683258 533.119263 L 258.423859 533.119263 L 260.447205 534.489502 L 260.447205 531.815308 L 262.468353 527.704468 L 263.838654 526.334106 L 271.994049 527.051392 L 275.387695 525.681091 L 276.040741 530.445068 L 277.411041 533.836487 L 280.80249 535.859863 L 287.589783 538.600464 L 291.047638 537.883179 L 293.721832 537.883179 L 293.721832 538.600464 L 296.462433 540.623779 L 295.745178 543.362183 L 297.832733 546.038574 L 298.485779 544.015259 L 299.203033 543.362183 L 300.506927 544.668274 L 308.011475 542.644897 L 308.011475 543.362183 L 308.662323 546.755859 L 306.641174 550.800293 L 303.900574 553.540894 L 299.856079 552.82373 L 299.856079 555.564331 L 300.506927 556.93457 L 304.617828 554.911255 L 310.752075 558.304932 L 310.752075 558.957947 L 309.381775 563.06665 L 308.662323 564.43689 L 306.641174 565.743042 L 305.988129 567.830566 L 310.032623 571.224243 L 311.402924 571.875122 L 313.42627 569.853943 L 316.819946 569.136719 L 320.211365 567.830566 L 321.517487 563.719727 L 326.279205 569.136719 L 326.279205 572.594543 L 327.649536 574.615723 L 328.36676 578.662354 L 329.672882 578.662354 L 333.783752 579.379639 L 334.436829 578.662354 L 335.804932 580.032715 L 338.545532 588.18811 L 338.545532 592.29895 L 343.309448 592.29895 L 343.962524 593.602905 L 345.332825 592.29895 L 345.983643 593.602905 L 345.332825 594.320129 L 348.724243 594.320129 L 348.724243 596.343506 L 351.464844 599.084106 L 352.11792 597.713745 L 355.509338 597.713745 L 360.273315 593.602905 L 360.99054 592.949829 L 363.013916 591.579529 L 367.775635 589.55835 L 369.145935 592.29895 L 373.192688 595.69043 L 373.843506 596.343506 L 375.213806 599.737122 L 377.303589 597.713745 L 380.695007 596.343506 L 383.371399 594.320129 L 385.458984 596.343506 L 390.873779 595.69043 L 399.029175 586.164734 L 401.05249 586.817749 L 413.318787 590.209229 L 413.318787 589.55835 L 415.342163 586.164734 L 421.474182 584.141357 L 423.497559 579.379639 L 424.148376 578.662354 L 428.259277 584.141357 L 430.282654 585.44751 L 433.023254 587.535034 L 435.697449 588.18811 L 438.438049 590.928711 L 437.784973 592.29895 L 439.80835 594.320129 L 441.831726 594.973145 L 443.852844 594.973145 L 445.942627 592.29895 L 443.202026 590.209229 L 441.17865 586.164734 L 441.831726 583.424133 L 442.54895 583.424133 L 441.831726 580.749939 L 443.202026 578.009338 L 445.223145 575.985962 L 445.223145 575.268738 L 444.572327 569.136719 L 445.942627 567.113342 L 447.963745 566.460327 L 456.119141 565.743042 L 460.883118 564.43689 L 462.253418 563.06665 L 467.668213 560.979126 L 468.321228 560.328247 L 471.061829 562.349365 L 471.061829 564.43689 L 473.802429 567.113342 L 473.802429 569.136719 L 475.172729 571.875122 L 477.846924 573.245361 L 483.328125 573.245361 L 486.002319 573.898438 L 488.74292 576.639038 L 491.483521 582.053833 L 494.877197 584.141357 L 500.291992 585.44751 L 502.315369 586.817749 L 503.685669 586.817749 L 505.055969 586.164734 L 505.055969 587.535034 L 508.447388 588.18811 L 509.817688 591.579529 L 511.187988 592.949829 L 516.602783 596.343506 L 518.62616 599.084106 L 519.99646 599.737122 L 519.99646 601.107422 L 519.343384 601.107422 L 519.343384 602.475525 L 522.019775 604.498901 L 522.737061 607.239502 L 524.760376 607.892517 L 526.781555 610.633179 L 528.151855 611.283936 L 530.892456 614.677612 L 536.307251 620.158813 L 539.700867 622.179932 L 541.071167 624.203308 L 543.094543 624.920532 L 544.464844 625.573608 L 545.115662 628.967285 L 545.832947 628.967285 L 551.249939 634.38208 L 555.36084 637.122681 L 558.035034 642.537476 L 557.381958 646.648376 L 556.011658 649.388977 L 553.271057 652.780396 L 554.641357 658.850464 L 558.752258 665.699768 L 560.775635 667.656738 L 561.428711 667.656738 L 562.145935 669.026978 L 562.799011 670.397339 L 566.907654 675.161255 L 567.56073 675.814331 L 568.93103 675.161255 L 570.954407 675.814331 L 571.671631 676.465149 L 571.671631 677.835449 L 573.695007 680.57605 L 574.345825 681.94635 L 575.065308 688.01416 L 575.065308 692.125122 L 574.345825 693.495422 L 574.345825 696.169556 L 575.065308 697.539917 L 575.065308 698.910156 L 570.954407 702.303833 L 569.584106 705.695313 L 570.301331 713.199829 L 571.671631 713.852905 L 571.671631 716.593506 L 571.671631 717.244385 L 574.345825 719.984985 L 575.716125 722.725586 L 576.435608 723.378601 L 575.065308 725.39978 L 575.716125 733.557373 L 572.324707 738.319092 L 571.671631 743.083008 L 568.93103 747.844788 L 570.954407 750.585388 L 571.671631 751.238403 L 573.695007 754.63208 L 570.954407 757.370483 L 564.169312 763.504395 L 563.516235 763.504395 L 560.122559 765.527771 L 552.620239 760.763794 L 551.249939 760.110718 L 543.094543 758.740784 L 541.071167 755.349365 L 539.700867 756.000183 L 538.330566 760.110718 L 536.307251 760.763794 L 536.960266 764.157471 L 534.286072 773.683472 L 535.656372 782.491943 L 535.656372 788.623962 L 536.307251 791.364563 L 526.128479 796.12854 L 522.019775 798.802734 L 519.343384 802.913635 L 516.602783 808.32843 L 515.232483 809.69873 L 512.49408 815.833008 L 510.470764 814.462708 L 509.817688 814.462708 L 508.447388 815.833008 L 507.794312 819.224426 L 507.794312 819.877441 L 507.077087 820.594727 L 505.706787 820.594727 L 505.055969 818.507202 L 500.291992 813.809631 L 499.638916 811.069031 L 498.921692 811.722046 L 497.551392 813.809631 L 495.528015 812.439331 L 496.181091 811.722046 L 494.877197 810.351807 L 494.159973 806.307312 L 492.789673 805.654236 L 493.506897 804.283936 L 492.136597 801.543335 L 493.506897 799.52002 L 493.506897 798.149658 L 490.11322 795.409058 L 490.11322 794.4151 L 490.766296 794.75824 L 490.11322 794.038757 L 490.11322 794.4151 L 489.395996 794.038757 L 489.395996 790.647339 L 488.025696 789.994263 L 488.74292 789.341248 L 488.74292 788.623962 L 486.721802 784.579468 L 487.37262 783.209167 L 487.37262 781.838867 L 488.025696 780.468567 L 486.002319 776.424072 L 488.74292 775.704651 L 491.483521 775.704651 L 493.506897 777.074951 L 495.528015 777.727966 L 496.181091 775.704651 L 495.528015 772.312866 L 496.898315 766.898071 L 496.181091 763.504395 L 496.898315 760.110718 L 497.551392 758.740784 L 494.877197 755.349365 L 494.159973 753.261841 L 490.766296 751.238403 L 488.74292 749.215088 L 486.721802 745.104187 L 485.351501 743.800293 L 482.610901 743.083008 L 481.240601 740.406616 L 481.957825 739.036377 L 481.240601 737.666016 L 479.217224 734.274597 L 476.476624 735.644897 L 476.476624 738.319092 L 467.668213 745.104187 L 466.297913 745.104187 L 464.927612 744.453369 L 464.276733 744.453369 L 464.276733 746.474487 L 464.927612 746.474487 L 464.927612 747.19397 L 465.647034 747.844788 L 465.647034 749.868164 L 466.297913 749.868164 L 467.017334 753.261841 L 467.017334 756.000183 L 465.647034 756.719604 L 464.927612 756.719604 L 461.536133 758.02356 L 460.165833 756.719604 L 456.119141 756.000183 L 452.727722 753.979004 L 449.334045 752.608765 L 445.942627 749.868164 L 443.202026 747.19397 L 443.202026 745.104187 L 441.831726 743.800293 L 440.461426 743.083008 L 439.80835 743.083008 L 436.414673 741.059692 L 434.393555 738.319092 L 435.046631 737.666016 L 431.652954 736.295776 L 429.629578 735.644897 L 429.629578 736.295776 L 426.888977 735.644897 L 424.148376 734.274597 L 418.080566 733.557373 L 416.710266 735.644897 L 415.342163 742.429993 L 414.622681 743.083008 L 409.925171 743.083008 L 403.793091 746.474487 L 400.399475 746.474487 L 398.31189 745.104187 L 397.658875 743.800293 L 393.61438 742.429993 L 388.133179 737.666016 L 387.480103 740.406616 L 386.762878 741.712769 L 384.088684 743.083008 L 382.718384 745.104187 L 382.718384 749.215088 L 384.741699 753.979004 L 385.458984 755.349365 L 383.371399 760.110718 L 382.001099 762.134094 L 379.324707 761.41687 L 376.584106 762.78717 L 375.213806 762.78717 L 373.192688 764.157471 L 370.452087 763.504395 L 369.799011 762.134094 L 367.775635 761.41687 L 366.405334 759.393494 L 367.775635 756.719604 L 367.775635 755.349365 L 366.405334 753.979004 L 364.384216 752.608765 L 363.013916 750.585388 L 360.99054 750.585388 L 356.228821 748.564209 L 352.835144 752.608765 L 352.11792 756.719604 L 352.11792 759.393494 L 354.139038 761.41687 L 356.228821 764.157471 L 357.532715 764.874695 L 358.903015 767.548889 L 360.273315 768.919189 L 360.99054 770.28949 L 360.99054 771.65979 L 356.879639 775.053772 L 354.139038 777.074951 L 352.835144 777.727966 L 351.464844 776.424072 L 350.74762 773.683472 L 349.377319 773.030457 L 347.353943 775.053772 L 346.700928 776.424072 L 343.962524 778.445251 L 339.915833 779.098267 L 338.545532 779.815552 L 337.175232 779.815552 L 333.783752 783.209167 L 331.760437 783.862244 L 326.99646 781.185852 L 326.279205 777.074951 L 324.908905 776.424072 L 323.605042 771.65979 L 320.864441 775.704651 L 318.907501 780.468567 L 320.211365 784.579468 L 323.605042 787.253662 L 321.517487 789.341248 L 321.517487 791.364563 L 319.560547 795.409058 L 323.605042 796.779358 L 324.908905 798.149658 L 326.279205 800.173035 L 327.649536 800.890259 L 329.672882 803.56665 L 327.649536 810.351807 L 326.279205 812.439331 L 325.628387 812.439331 L 324.908905 811.722046 L 324.258087 812.439331 L 322.234741 811.069031 L 320.211365 811.722046 L 318.190247 809.69873 L 318.907501 808.32843 L 316.16687 808.32843 L 314.79657 806.95813 L 314.143524 807.675415 L 313.42627 806.95813 L 313.42627 805.654236 L 311.402924 804.937012 L 310.032623 804.937012 L 308.662323 803.56665 L 307.358429 803.56665 L 306.641174 804.937012 L 305.270874 805.654236 L 303.900574 804.283936 L 302.594482 804.937012 L 301.224182 804.283936 L 299.856079 804.937012 L 298.485779 803.56665 L 296.462433 805.654236 L 294.439087 803.56665 L 292.351532 806.95813 L 289.677338 806.95813 L 288.960083 808.32843 L 287.589783 807.675415 L 286.936737 805.654236 L 286.936737 804.283936 L 285.566437 804.283936 L 284.913391 805.654236 L 283.543091 805.654236 L 283.543091 806.307312 L 285.566437 808.32843 L 283.543091 811.069031 L 282.172791 811.069031 L 280.80249 810.351807 L 279.43219 810.351807 L 278.781342 812.439331 L 284.913391 819.224426 L 282.172791 821.965027 L 278.781342 815.113525 L 275.387695 813.809631 L 274.73465 814.462708 L 276.757996 815.833008 L 276.040741 816.483826 L 275.387695 817.854126 L 274.73465 817.854126 L 273.364349 816.483826 L 272.647095 816.483826 L 274.73465 819.877441 L 274.017395 821.247803 L 269.9729 819.877441 L 266.579254 817.203308 L 264.491699 815.833008 L 261.815277 813.092407 L 263.838654 809.045654 L 264.491699 806.307312 L 263.838654 805.654236 L 261.815277 805.654236 L 259.754303 804.301636 L 259.076904 805.654236 L 258.423859 808.32843 L 257.053558 809.69873 L 257.706604 811.069031 L 254.312958 812.439331 L 254.966003 813.809631 L 254.966003 814.462708 L 253.659882 816.483826 L 252.289581 817.854126 L 252.289581 818.507202 L 252.942657 820.594727 L 251.572327 822.618103 L 251.572327 823.271118 L 252.942657 823.271118 L 251.572327 824.641418 L 250.919281 829.403198 L 249.551208 832.143799 L 250.268463 834.167114 L 249.551208 837.558594 L 250.268463 838.275818 L 250.268463 839.581909 L 250.919281 838.928894 L 251.572327 839.581909 L 251.572327 840.299194 L 250.268463 842.32251 L 250.268463 842.975586 L 252.289581 845.06311 L 251.572327 849.82489 L 252.942657 857.980286 L 252.942657 860.003601 L 252.289581 860.656677 L 252.942657 864.767578 L 253.659882 866.137878 L 252.942657 870.182373 L 252.289581 872.205688 L 252.289581 872.922974 L 250.268463 879.054993 L 248.898163 881.078369 L 249.551208 881.731445 L 248.180908 884.472046 L 248.898163 885.842285 L 247.527863 886.493164 L 245.504486 887.212646 L 242.113068 886.493164 L 238.002167 887.212646 L 236.631836 884.472046 L 227.823395 885.122864 L 225.800049 885.842285 L 221.689148 885.842285 L 220.318848 886.493164 L 216.274353 881.731445 L 216.927399 879.708069 L 216.274353 878.337769 L 220.318848 873.57605 L 219.667999 870.899597 L 219.667999 868.812073 L 218.297699 870.182373 L 216.274353 869.529297 L 215.557098 871.552673 L 214.904053 872.205688 L 212.880707 870.899597 L 211.510406 872.922974 L 209.489258 872.922974 L 209.489258 874.293274 L 207.401703 875.597168 L 204.008057 874.946289 L 204.008057 875.597168 L 203.355011 876.967468 L 202.637756 877.684692 L 201.984711 879.054993 L 204.008057 880.361084 L 204.725311 882.448669 L 203.355011 884.472046 L 201.984711 884.472046 L 201.333862 887.212646 L 200.61441 888.516479 L 199.246307 889.886841 L 197.876007 889.886841 L 195.199615 887.863464 L 194.482361 888.516479 L 193.829315 891.257141 L 195.852661 892.627441 L 195.852661 893.997742 L 193.829315 896.01886 L 193.176239 894.650757 L 190.437866 893.280457 L 187.04422 893.997742 L 187.04422 895.368042 L 186.326965 896.671875 L 187.04422 898.042236 Z M 98.700745 531.095886 L 97.98349 529.074707 L 97.330414 526.334106 Z M 74.885376 689.384521 L 72.86203 689.384521 L 73.515076 688.731445 Z M 108.879486 744.453369 L 106.138885 743.083008 L 108.162231 741.059692 L 107.509186 739.689392 L 108.162231 739.036377 L 110.249786 739.689392 L 110.249786 741.059692 L 109.532532 742.429993 L 109.532532 741.712769 L 108.879486 743.083008 L 109.532532 743.083008 Z M 214.904053 658.850464"/>
            <path id="path1" fill="#ffffff" fill-rule="evenodd" stroke="#ffffff" stroke-width="5.511338" stroke-linecap="round" stroke-linejoin="round" d="M 185.068359 728 C 185.068359 696.918884 217.525543 703.164673 215.324219 659.789063 C 209.32373 669.159058 195.466476 679.436401 188.742188 683.910156 C 177.719543 691.258606 178.380875 699.854736 170.371094 698.605469 C 166.542542 695.151733 175.551743 687.437012 170.371094 687.583984 C 166.696869 687.583984 171.06958 692.102478 166.697266 694.931641 C 163.023041 694.931641 151.988983 698.605469 152 680.234375 C 152 672.885925 174.044922 636.144531 174.044922 636.144531 C 174.044922 636.144531 180.990356 629.16394 181.394531 623.285156 C 178.712341 619.632935 179.556641 615.935913 179.556641 612.261719 C 183.230865 608.587524 190.580078 621.447266 190.580078 621.447266 L 197.927734 621.447266 C 197.927734 621.447266 200.79361 614.127441 207.113281 610.423828 C 210.787506 610.423828 210.787109 621.447266 210.787109 621.447266 C 212.822556 621.641113 214.811569 621.895874 216.753906 622.216797 L 215.503906 626.244141 L 217.339844 626.796875 C 228.913635 630.471069 238.100204 635.945496 246.367188 651.597656 C 254.634186 667.249878 258.307831 689.478271 256.470703 726 L 256.287109 727.837891 L 264.554688 727.837891 L 264.738281 726 C 266.575409 689.037354 261.504791 664.088989 252.796875 647.591797 C 248.882813 640.176514 244.19014 634.498413 239.074219 630.320313 C 259.815521 643.493164 270.90036 672.38324 269.576172 728 L 185.068359 728 Z M 160.023438 678.234375 C 161.03804 678.234375 161.859375 677.413086 161.859375 676.398438 C 161.859375 675.383789 161.03804 674.560547 160.023438 674.560547 C 159.00882 674.560547 158.185547 675.383789 158.185547 676.398438 C 158.185547 677.413086 159.00882 678.234375 160.023438 678.234375 Z M 177.851563 644.517578 C 178.833481 644.491089 180.490601 642.880676 181.822266 640.574219 C 183.344193 637.938293 183.864975 635.390137 182.986328 634.882813 C 182.107681 634.375488 180.162537 636.100342 178.640625 638.736328 C 177.118713 641.372314 176.595963 643.92041 177.474609 644.427734 C 177.584442 644.49115 177.711288 644.521362 177.851563 644.517578 Z"/>
            <path id="chess-queen-svgrepo-com" fill="#ffffff" stroke="none" d="M 310.988617 112.606567 C 332.72821 112.606567 350.351593 95.233765 350.351593 73.803284 C 350.351593 52.372864 332.72821 35 310.988617 35 C 289.249054 35 271.625671 52.372864 271.625671 73.803284 C 271.625671 95.233765 289.249054 112.606567 310.988617 112.606567 Z M 434.700775 345.42627 L 187.276474 345.42627 C 181.06517 345.42627 176.029907 350.389954 176.029907 356.512939 L 176.029907 378.686218 C 176.029907 384.809204 181.06517 389.772888 187.276474 389.772888 L 434.700775 389.772888 C 440.912109 389.772888 445.947357 384.809204 445.947357 378.686218 L 445.947357 356.512939 C 445.947357 350.389954 440.912109 345.42627 434.700775 345.42627 Z M 485.921844 162.607361 L 465.881866 151.576172 C 460.652222 148.111572 453.995667 149.871582 450.21402 154.819031 C 442.526184 164.96405 429.624146 169.873169 417.015564 167.450867 C 400.750244 164.478271 389.714539 149.282593 389.714539 132.978271 C 389.714539 127.850281 385.497528 123.693237 380.295563 123.693237 L 353.043732 123.693237 C 348.826263 123.693237 344.882965 126.464905 344.004303 130.559998 C 340.716888 145.950256 326.943207 156.966797 310.988617 156.966797 C 295.034058 156.966797 281.260376 145.950256 277.972961 130.559998 C 277.094299 126.457947 273.179108 123.693237 268.933533 123.693237 L 241.681702 123.693237 C 236.479752 123.693237 232.262711 127.850281 232.262711 132.978271 C 232.262711 150.779297 218.907425 166.757935 200.863724 167.963623 C 189.468948 168.755615 178.454315 163.75 171.664841 154.694275 C 167.953476 149.781494 161.310974 148.14624 156.137558 151.548462 L 136.05542 162.635071 C 131.334335 165.735718 129.694885 171.817078 132.231598 176.819092 L 204.315018 323.252991 L 417.662262 323.252991 L 489.745667 176.791382 C 492.282379 171.789368 490.642914 165.708008 485.921844 162.607361 Z"/>
        </g>
        <g id="Copy">
            <path id="DE-GUADA" fill="#ffffff" fill-rule="evenodd" stroke="none" d="M 1902.400024 784.039978 L 1916.400024 828 L 1964.560059 828 L 1896.800049 632 L 1846.400024 632 L 1778.640015 828 L 1826.800049 828 L 1840.800049 784.039978 Z M 1890.079956 744.839966 L 1853.119995 744.839966 L 1871.599976 682.679993 Z M 1614 632 L 1614 828 L 1671.680054 828 C 1734.680054 828 1775 791.320007 1775 730 C 1775 668.679993 1734.680054 632 1671.680054 632 Z M 1671.680054 673.440002 C 1703.880005 673.440002 1725.160034 692.47998 1725.160034 730 C 1725.160034 767.52002 1703.880005 786.559998 1671.680054 786.559998 L 1661.880005 786.559998 L 1661.880005 673.440002 Z M 1538.400024 784.039978 L 1552.400024 828 L 1600.560059 828 L 1532.800049 632 L 1482.400024 632 L 1414.640015 828 L 1462.800049 828 L 1476.800049 784.039978 Z M 1526.079956 744.839966 L 1489.119995 744.839966 L 1507.599976 682.679993 Z M 1325.599976 831.359985 C 1377.400024 831.359985 1407.359985 798.320007 1407.359985 752.400024 L 1407.359985 632 L 1359.47998 632 L 1359.47998 752.400024 C 1359.47998 773.960022 1347.439941 787.119995 1325.880005 787.119995 C 1304.599976 787.119995 1291.719971 773.960022 1291.719971 752.679993 L 1291.719971 632 L 1243.839966 632 L 1243.839966 752.679993 C 1243.839966 799.440002 1272.959961 831.359985 1325.599976 831.359985 Z M 1220.599976 717.959961 L 1142.199951 717.959961 L 1142.199951 758 L 1176.079956 758 L 1176.079956 775.359985 C 1173 778.440002 1159 787.400024 1134.359985 787.400024 C 1103.280029 787.400024 1079.199951 765 1079.199951 728.599976 C 1079.199951 696.959961 1099.359985 672.599976 1134.359985 672.599976 C 1160.680054 672.599976 1177.47998 688.280029 1181.680054 693.880005 L 1211.920044 662.52002 C 1201.839966 649.920044 1178.319946 628.359985 1132.119995 628.359985 C 1071.079956 628.359985 1029.640015 673.440002 1029.640015 729.440002 C 1029.640015 792.440002 1075.560059 831.640015 1131 831.640015 C 1176.079956 831.640015 1199.880005 816.799988 1220.599976 800.839966 Z M 966.359985 828 L 966.359985 785.160034 L 907.559998 785.160034 L 907.559998 750.160034 L 955.719971 750.160034 L 955.719971 707.599976 L 907.559998 707.599976 L 907.559998 674.839966 L 964.119995 674.839966 L 964.119995 632 L 859.679993 632 L 859.679993 828 Z M 679.359985 632 L 679.359985 828 L 737.039978 828 C 800.039978 828 840.359985 791.320007 840.359985 730 C 840.359985 668.679993 800.039978 632 737.039978 632 Z M 737.039978 673.440002 C 769.23999 673.440002 790.52002 692.47998 790.52002 730 C 790.52002 767.52002 769.23999 786.559998 737.039978 786.559998 L 727.23999 786.559998 L 727.23999 673.440002 Z"/>
            <path id="GAMBITO--" fill="#ffffff" fill-rule="evenodd" stroke="none" d="M 1831.742188 584.873047 C 1765.884399 584.873047 1722.375 537.790283 1722.375 476.402344 C 1722.375 415.908447 1765.884399 368.525391 1831.742188 368.525391 C 1897.600098 368.525391 1941.107422 415.908447 1941.107422 476.402344 C 1941.107422 537.790283 1897.600098 584.873047 1831.742188 584.873047 Z M 1627.611328 581 L 1627.611328 417.994141 L 1582.613281 417.994141 L 1582.613281 372.400391 L 1723.568359 372.400391 L 1723.568359 417.994141 L 1678.570313 417.994141 L 1678.570313 581 L 1627.611328 581 Z M 1831.742188 537.193359 C 1864.82019 537.193359 1888.064453 511.566345 1888.064453 476.402344 C 1888.064453 442.132446 1865.118286 416.205078 1831.742188 416.205078 C 1798.366211 416.205078 1775.419922 442.132446 1775.419922 476.402344 C 1775.419922 511.566345 1798.664185 537.193359 1831.742188 537.193359 Z M 1564.436035 372.400024 L 1513.478027 372.400024 L 1513.478027 581 L 1564.436035 581 Z M 1493.213989 518.718018 C 1493.213989 497.261993 1484.572021 480.276001 1464.01001 471.633972 C 1478.313965 463.588013 1486.657959 446.304016 1486.657959 428.424011 C 1486.657959 392.664001 1461.328003 372.400024 1419.011963 372.400024 L 1344.511963 372.400024 L 1344.511963 581 L 1421.395996 581 C 1461.328003 581 1493.213989 561.033997 1493.213989 518.718018 Z M 1420.203979 494.579987 C 1433.614014 494.579987 1440.765991 503.221985 1440.765991 515.738037 C 1440.765991 527.657959 1433.31604 537.19397 1419.906006 537.19397 L 1395.171997 537.19397 L 1395.171997 494.579987 Z M 1416.329956 415.90802 C 1428.845947 415.90802 1434.80603 423.357971 1434.80603 434.383972 C 1434.80603 445.708008 1428.547974 453.754028 1416.926025 453.754028 L 1395.171997 453.754028 L 1395.171997 415.90802 Z M 1219.352051 564.014038 L 1265.244019 444.218018 L 1265.244019 581 L 1314.115967 581 L 1314.115967 372.400024 L 1247.959961 372.400024 L 1195.810059 504.414001 L 1143.958008 372.400024 L 1077.802002 372.400024 L 1077.802002 581 L 1126.67395 581 L 1126.67395 444.218018 L 1172.56604 564.014038 Z M 997.937988 534.213989 L 1012.838013 581 L 1064.093994 581 L 991.978027 372.400024 L 938.338013 372.400024 L 866.221985 581 L 917.478027 581 L 932.377991 534.213989 Z M 984.825989 492.493988 L 945.48999 492.493988 L 965.15802 426.338013 Z M 857.580017 463.885986 L 774.140015 463.885986 L 774.140015 506.5 L 810.197998 506.5 L 810.197998 524.976013 C 806.919983 528.254028 792.02002 537.790039 765.796021 537.790039 C 732.718018 537.790039 707.090027 513.950012 707.090027 475.210022 C 707.090027 441.536011 728.546021 415.609985 765.796021 415.609985 C 793.807983 415.609985 811.687988 432.297974 816.15802 438.257996 L 848.34198 404.882019 C 837.614014 391.471985 812.58197 368.526001 763.411987 368.526001 C 698.447998 368.526001 654.343994 416.504028 654.343994 476.104004 C 654.343994 543.153992 703.216003 584.874023 762.219971 584.874023 C 810.197998 584.874023 835.528015 569.079956 857.580017 552.093994 Z"/>
            <path id="CLUB-AJEDREZ" fill="#ffffff" fill-rule="evenodd" stroke="none" d="M 1823.584961 322 L 1934.472046 322 L 1934.472046 311.801025 L 1837.255981 311.801025 L 1934.037964 179.64801 L 1934.037964 170.099976 L 1826.623047 170.099976 L 1826.623047 180.299011 L 1920.366943 180.299011 L 1823.584961 312.669006 Z M 1736.134033 322 L 1807.744019 322 L 1807.744019 311.801025 L 1747.20105 311.801025 L 1747.20105 249.521973 L 1798.196045 249.521973 L 1798.196045 239.322998 L 1747.20105 239.322998 L 1747.20105 180.299011 L 1805.357056 180.299011 L 1805.357056 170.099976 L 1736.134033 170.099976 Z M 1625.897949 322 L 1636.964966 322 L 1636.964966 252.559998 L 1667.562012 252.559998 L 1704.234985 322 L 1716.604004 322 L 1677.978027 250.390015 C 1694.904053 244.747986 1706.187988 229.992004 1706.187988 211.330017 C 1706.187988 189.195984 1690.347046 170.099976 1660.834961 170.099976 L 1625.897949 170.099976 Z M 1636.964966 242.578003 L 1636.964966 180.299011 L 1660.618042 180.299011 C 1682.317993 180.299011 1694.469971 193.31897 1694.469971 211.330017 C 1694.469971 230.643005 1681.666992 242.578003 1661.269043 242.578003 Z M 1493.962036 322 L 1520.869995 322 C 1572.082031 322 1602.678955 297.262024 1602.678955 246.049988 C 1602.678955 198.526978 1573.600952 170.099976 1520.869995 170.099976 L 1493.962036 170.099976 Z M 1505.029053 311.801025 L 1505.029053 180.299011 L 1525.427002 180.299011 C 1565.78894 180.299011 1591.39502 205.036987 1591.39502 246.049988 C 1591.39502 289.232971 1565.78894 311.801025 1525.427002 311.801025 Z M 1396.094971 322 L 1467.704956 322 L 1467.704956 311.801025 L 1407.161987 311.801025 L 1407.161987 249.521973 L 1458.156982 249.521973 L 1458.156982 239.322998 L 1407.161987 239.322998 L 1407.161987 180.299011 L 1465.317993 180.299011 L 1465.317993 170.099976 L 1396.094971 170.099976 Z M 1315.370972 321.132019 C 1315.370972 321.132019 1322.531982 323.302002 1332.514038 323.302002 C 1353.129028 323.302002 1363.545044 310.499023 1363.545044 289.232971 L 1363.545044 170.099976 L 1352.478027 170.099976 L 1352.478027 288.58197 C 1352.478027 306.593018 1344.448975 313.320007 1331.645996 313.320007 C 1323.400024 313.320007 1316.456055 311.150024 1316.456055 311.150024 Z M 1279.348999 267.53302 L 1299.963989 322 L 1311.248047 322 L 1253.092041 170.099976 L 1242.241943 170.099976 L 1184.08606 322 L 1195.369995 322 L 1215.984985 267.53302 Z M 1275.442993 257.333984 L 1219.890991 257.333984 L 1247.666992 182.685974 Z M 1034.599976 322 L 1078.380005 322 C 1103.900024 322 1122.599976 302.859985 1122.599976 278.880005 C 1122.599976 260.179993 1111.160034 246.320007 1096.640015 241.26001 C 1107.859985 235.76001 1117.319946 223.440002 1117.319946 207.380005 C 1117.319946 184.059998 1099.719971 168 1074.859985 168 L 1034.599976 168 Z M 1045.819946 236.640015 L 1045.819946 178.340027 L 1076.180054 178.340027 C 1093.560059 178.340027 1105.660034 190.659973 1105.660034 207.380005 C 1105.660034 223.880005 1093.339966 236.640015 1076.180054 236.640015 Z M 1045.819946 311.880005 L 1045.819946 246.76001 L 1074.420044 246.76001 C 1094.880005 246.76001 1110.939941 257.76001 1110.939941 278.880005 C 1110.939941 300 1095.76001 311.880005 1074.859985 311.880005 Z M 947.26001 324.859985 C 982.679993 324.859985 1002.700012 302.419983 1002.700012 267.880005 L 1002.700012 168 L 991.47998 168 L 991.47998 267.659973 C 991.47998 296.26001 976.52002 314.299988 947.26001 314.299988 C 918 314.299988 903.039978 296.26001 903.039978 267.659973 L 903.039978 168 L 891.820007 168 L 891.820007 267.880005 C 891.820007 302.419983 911.840027 324.859985 947.26001 324.859985 Z M 803.599976 322 L 876.200012 322 L 876.200012 311.659973 L 814.820007 311.659973 L 814.820007 168 L 803.599976 168 Z M 776.97998 295.820007 C 772.580017 299.780029 756.299988 314.299988 729.679993 314.299988 C 691.619995 314.299988 664.119995 284.820007 664.119995 245 C 664.119995 205.179993 693.159973 175.700012 729.02002 175.700012 C 752.119995 175.700012 768.400024 187.580017 773.679993 192.200012 L 777.640015 182.080017 C 770.380005 175.919983 753.440002 165.140015 729.02002 165.140015 C 686.780029 165.140015 652.460022 199.460022 652.460022 245 C 652.460022 290.539978 685.900024 324.859985 729.679993 324.859985 C 757.840027 324.859985 776.539978 310.119995 780.719971 305.719971 Z"/>
        </g>
    </g>
</svg>
